<svg xmlns="http://www.w3.org/2000/svg" viewBox="0 0 1440 1000" font-family="'Geist', system-ui, sans-serif">
  <defs>
    <linearGradient id="accent-grad" x1="0%" y1="0%" x2="100%" y2="100%">
      <stop offset="0%" stop-color="#a855f7"/>
      <stop offset="50%" stop-color="#3b82f6"/>
      <stop offset="100%" stop-color="#06b6d4"/>
    </linearGradient>
    <linearGradient id="glass" x1="0%" y1="0%" x2="100%" y2="100%">
      <stop offset="0%" stop-color="rgba(255,255,255,0.06)"/>
      <stop offset="100%" stop-color="rgba(255,255,255,0.02)"/>
    </linearGradient>
  </defs>

  <rect width="1440" height="1000" fill="#0a0b0f"/>

  <!-- Sidebar -->
  <rect x="0" y="0" width="240" height="1000" fill="#0d0e14"/>
  <rect x="240" y="0" width="1" height="1000" fill="rgba(255,255,255,0.06)"/>
  <text x="28" y="42" fill="url(#accent-grad)" font-size="18" font-weight="700">🎮 GameForge</text>
  <g fill="rgba(255,255,255,0.5)" font-size="13" font-weight="500">
    <rect x="12" y="88" width="216" height="40" rx="10" fill="transparent"/>
    <text x="48" y="113">📊 项目主页</text>
    <!-- Active -->
    <rect x="12" y="136" width="216" height="40" rx="10" fill="rgba(59,130,246,0.12)" stroke="rgba(59,130,246,0.3)" stroke-width="1"/>
    <text x="48" y="161" fill="#3b82f6" font-weight="600">📁 素材库</text>
    <rect x="12" y="184" width="216" height="40" rx="10" fill="transparent"/>
    <text x="48" y="209">✂️ 智能剪辑</text>
    <rect x="12" y="232" width="216" height="40" rx="10" fill="transparent"/>
    <text x="48" y="257">🎨 封面工坊</text>
    <rect x="12" y="280" width="216" height="40" rx="10" fill="transparent"/>
    <text x="48" y="305">🚀 发布中心</text>
  </g>

  <!-- Top Bar -->
  <rect x="240" y="0" width="1200" height="64" fill="rgba(13,14,20,0.85)"/>
  <text x="272" y="40" fill="rgba(255,255,255,0.9)" font-size="18" font-weight="600">素材库</text>

  <!-- Search + Filter Bar -->
  <g transform="translate(272, 76)">
    <!-- Search -->
    <rect x="0" y="0" width="400" height="40" rx="10" fill="rgba(255,255,255,0.04)" stroke="rgba(255,255,255,0.08)" stroke-width="1"/>
    <text x="16" y="25" fill="rgba(255,255,255,0.35)" font-size="12">🔍 搜索素材名称、标签...</text>

    <!-- Filter pills -->
    <rect x="420" y="4" width="56" height="32" rx="16" fill="rgba(59,130,246,0.12)"/>
    <text x="448" y="25" fill="#3b82f6" font-size="11" font-weight="600" text-anchor="middle">全部</text>
    <rect x="484" y="4" width="56" height="32" rx="16" fill="rgba(255,255,255,0.06)"/>
    <text x="512" y="25" fill="rgba(255,255,255,0.55)" font-size="11" text-anchor="middle">视频</text>
    <rect x="548" y="4" width="56" height="32" rx="16" fill="rgba(255,255,255,0.06)"/>
    <text x="576" y="25" fill="rgba(255,255,255,0.55)" font-size="11" text-anchor="middle">图片</text>
    <rect x="612" y="4" width="56" height="32" rx="16" fill="rgba(255,255,255,0.06)"/>
    <text x="640" y="25" fill="rgba(255,255,255,0.55)" font-size="11" text-anchor="middle">音频</text>

    <!-- View toggle -->
    <rect x="720" y="4" width="32" height="32" rx="8" fill="rgba(59,130,246,0.12)"/>
    <text x="736" y="25" fill="#3b82f6" font-size="14" text-anchor="middle">▦</text>
    <rect x="760" y="4" width="32" height="32" rx="8" fill="rgba(255,255,255,0.06)"/>
    <text x="776" y="25" fill="rgba(255,255,255,0.4)" font-size="14" text-anchor="middle">☰</text>

    <!-- Upload button -->
    <rect x="840" y="2" width="110" height="36" rx="18" fill="url(#accent-grad)" opacity="0.9"/>
    <text x="895" y="25" fill="#fff" font-size="12" font-weight="600" text-anchor="middle">+ 上传素材</text>

    <!-- Sort -->
    <text x="1000" y="25" fill="rgba(255,255,255,0.4)" font-size="11">排序: 最新上传 ▾</text>
  </g>

  <!-- Tag sidebar (left sub-panel) -->
  <g transform="translate(272, 132)">
    <text x="0" y="12" fill="rgba(255,255,255,0.55)" font-size="11" font-weight="500">标签筛选</text>
    <g transform="translate(0, 24)">
      <rect x="0" y="0" width="140" height="28" rx="8" fill="rgba(59,130,246,0.1)"/>
      <circle cx="12" cy="14" r="4" fill="#3b82f6"/>
      <text x="24" y="18" fill="rgba(255,255,255,0.7)" font-size="11">全部素材</text>
      <text x="126" y="18" fill="rgba(255,255,255,0.4)" font-size="10" text-anchor="end">128</text>

      <rect x="0" y="34" width="140" height="28" rx="8" fill="rgba(255,255,255,0.03)"/>
      <circle cx="12" cy="48" r="4" fill="#a855f7"/>
      <text x="24" y="52" fill="rgba(255,255,255,0.6)" font-size="11">原神</text>
      <text x="126" y="52" fill="rgba(255,255,255,0.4)" font-size="10" text-anchor="end">42</text>

      <rect x="0" y="68" width="140" height="28" rx="8" fill="rgba(255,255,255,0.03)"/>
      <circle cx="12" cy="82" r="4" fill="#06b6d4"/>
      <text x="24" y="86" fill="rgba(255,255,255,0.6)" font-size="11">鸣潮</text>
      <text x="126" y="86" fill="rgba(255,255,255,0.4)" font-size="10" text-anchor="end">35</text>

      <rect x="0" y="102" width="140" height="28" rx="8" fill="rgba(255,255,255,0.03)"/>
      <circle cx="12" cy="116" r="4" fill="#eab308"/>
      <text x="24" y="120" fill="rgba(255,255,255,0.6)" font-size="11">绝区零</text>
      <text x="126" y="120" fill="rgba(255,255,255,0.4)" font-size="10" text-anchor="end">28</text>

      <rect x="0" y="136" width="140" height="28" rx="8" fill="rgba(255,255,255,0.03)"/>
      <circle cx="12" cy="150" r="4" fill="#22c55e"/>
      <text x="24" y="154" fill="rgba(255,255,255,0.6)" font-size="11">高光</text>
      <text x="126" y="154" fill="rgba(255,255,255,0.4)" font-size="10" text-anchor="end">18</text>

      <rect x="0" y="170" width="140" height="28" rx="8" fill="rgba(255,255,255,0.03)"/>
      <circle cx="12" cy="184" r="4" fill="rgba(255,255,255,0.3)"/>
      <text x="24" y="188" fill="rgba(255,255,255,0.6)" font-size="11">待审核</text>
      <text x="126" y="188" fill="rgba(255,255,255,0.4)" font-size="10" text-anchor="end">5</text>
    </g>
    <!-- Add tag -->
    <rect x="0" y="230" width="140" height="28" rx="8" fill="transparent" stroke="rgba(255,255,255,0.12)" stroke-width="1" stroke-dasharray="4,4"/>
    <text x="70" y="249" fill="rgba(255,255,255,0.35)" font-size="10" text-anchor="middle">+ 新建标签</text>
  </g>

  <!-- Asset Grid (main content) -->
  <g transform="translate(432, 132)">
    <!-- Asset Card 1 (selected) -->
    <g transform="translate(0, 0)">
      <rect x="0" y="0" width="220" height="200" rx="12" fill="url(#glass)" stroke="rgba(59,130,246,0.4)" stroke-width="1.5"/>
      <!-- Thumbnail -->
      <rect x="8" y="8" width="204" height="130" rx="8" fill="rgba(168,85,247,0.12)"/>
      <text x="110" y="78" fill="rgba(255,255,255,0.15)" font-size="28" text-anchor="middle">▶</text>
      <!-- Duration -->
      <rect x="172" y="112" width="32" height="16" rx="4" fill="rgba(0,0,0,0.6)"/>
      <text x="188" y="124" fill="#fff" font-size="9" text-anchor="middle">18:42</text>
      <!-- Checkbox (selected) -->
      <rect x="12" y="12" width="18" height="18" rx="4" fill="#3b82f6"/>
      <text x="21" y="25" fill="#fff" font-size="10" text-anchor="middle" font-weight="600">✓</text>
      <!-- Info -->
      <text x="12" y="160" fill="rgba(255,255,255,0.9)" font-size="11" font-weight="600">原神4.7_实机录制_01.mp4</text>
      <text x="12" y="176" fill="rgba(255,255,255,0.55)" font-size="10">2.4 GB · 1080p · 原神</text>
      <!-- Tag -->
      <rect x="12" y="182" width="36" height="14" rx="7" fill="rgba(168,85,247,0.15)"/>
      <text x="30" y="192" fill="#a855f7" font-size="8" text-anchor="middle" font-weight="500">原神</text>
    </g>

    <!-- Asset Card 2 -->
    <g transform="translate(232, 0)">
      <rect x="0" y="0" width="220" height="200" rx="12" fill="url(#glass)" stroke="rgba(255,255,255,0.08)" stroke-width="1"/>
      <rect x="8" y="8" width="204" height="130" rx="8" fill="rgba(59,130,246,0.12)"/>
      <text x="110" y="78" fill="rgba(255,255,255,0.15)" font-size="28" text-anchor="middle">▶</text>
      <rect x="172" y="112" width="32" height="16" rx="4" fill="rgba(0,0,0,0.6)"/>
      <text x="188" y="124" fill="#fff" font-size="9" text-anchor="middle">24:15</text>
      <rect x="12" y="12" width="18" height="18" rx="4" fill="transparent" stroke="rgba(255,255,255,0.2)" stroke-width="1.5"/>
      <text x="12" y="160" fill="rgba(255,255,255,0.9)" font-size="11" font-weight="600">鸣潮_角色演示_全集.mp4</text>
      <text x="12" y="176" fill="rgba(255,255,255,0.55)" font-size="10">3.8 GB · 4K · 鸣潮</text>
      <rect x="12" y="182" width="36" height="14" rx="7" fill="rgba(6,182,212,0.15)"/>
      <text x="30" y="192" fill="#06b6d4" font-size="8" text-anchor="middle" font-weight="500">鸣潮</text>
    </g>

    <!-- Asset Card 3 (image) -->
    <g transform="translate(464, 0)">
      <rect x="0" y="0" width="220" height="200" rx="12" fill="url(#glass)" stroke="rgba(255,255,255,0.08)" stroke-width="1"/>
      <rect x="8" y="8" width="204" height="130" rx="8" fill="rgba(234,179,8,0.1)"/>
      <text x="110" y="78" fill="rgba(255,255,255,0.15)" font-size="28" text-anchor="middle">🖼</text>
      <rect x="12" y="12" width="18" height="18" rx="4" fill="transparent" stroke="rgba(255,255,255,0.2)" stroke-width="1.5"/>
      <text x="12" y="160" fill="rgba(255,255,255,0.9)" font-size="11" font-weight="600">绝区零_封面_v3.png</text>
      <text x="12" y="176" fill="rgba(255,255,255,0.55)" font-size="10">4.2 MB · 1920×1080 · 绝区零</text>
      <rect x="12" y="182" width="42" height="14" rx="7" fill="rgba(234,179,8,0.15)"/>
      <text x="33" y="192" fill="#eab308" font-size="8" text-anchor="middle" font-weight="500">绝区零</text>
    </g>

    <!-- Asset Card 4 (uploading) -->
    <g transform="translate(696, 0)">
      <rect x="0" y="0" width="220" height="200" rx="12" fill="url(#glass)" stroke="rgba(59,130,246,0.2)" stroke-width="1"/>
      <rect x="8" y="8" width="204" height="130" rx="8" fill="rgba(59,130,246,0.08)"/>
      <!-- Upload progress -->
      <rect x="60" y="50" width="100" height="100" rx="12" fill="rgba(59,130,246,0.1)"/>
      <text x="110" y="90" fill="rgba(59,130,246,0.6)" font-size="24" text-anchor="middle">↑</text>
      <text x="110" y="110" fill="#3b82f6" font-size="10" font-weight="600" text-anchor="middle">67%</text>
      <!-- Progress bar -->
      <rect x="60" y="116" width="100" height="4" rx="2" fill="rgba(255,255,255,0.06)"/>
      <rect x="60" y="116" width="67" height="4" rx="2" fill="#3b82f6"/>
      <text x="12" y="160" fill="rgba(255,255,255,0.7)" font-size="11" font-weight="500">绝区零_实机_02.mp4</text>
      <text x="12" y="176" fill="rgba(255,255,255,0.55)" font-size="10">上传中... 1.6GB / 2.4GB</text>
    </g>

    <!-- Row 2 -->
    <!-- Asset Card 5 -->
    <g transform="translate(0, 212)">
      <rect x="0" y="0" width="220" height="200" rx="12" fill="url(#glass)" stroke="rgba(255,255,255,0.08)" stroke-width="1"/>
      <rect x="8" y="8" width="204" height="130" rx="8" fill="rgba(34,197,94,0.1)"/>
      <text x="110" y="78" fill="rgba(255,255,255,0.15)" font-size="28" text-anchor="middle">🎵</text>
      <rect x="12" y="12" width="18" height="18" rx="4" fill="transparent" stroke="rgba(255,255,255,0.2)" stroke-width="1.5"/>
      <text x="12" y="160" fill="rgba(255,255,255,0.9)" font-size="11" font-weight="600">BGM_战斗_高燃.mp3</text>
      <text x="12" y="176" fill="rgba(255,255,255,0.55)" font-size="10">8.6 MB · 3:24 · 高光</text>
      <rect x="12" y="182" width="36" height="14" rx="7" fill="rgba(34,197,94,0.15)"/>
      <text x="30" y="192" fill="#22c55e" font-size="8" text-anchor="middle" font-weight="500">高光</text>
    </g>

    <!-- Asset Card 6 (pending review) -->
    <g transform="translate(232, 212)">
      <rect x="0" y="0" width="220" height="200" rx="12" fill="url(#glass)" stroke="rgba(234,179,8,0.2)" stroke-width="1"/>
      <rect x="8" y="8" width="204" height="130" rx="8" fill="rgba(234,179,8,0.06)"/>
      <text x="110" y="78" fill="rgba(255,255,255,0.15)" font-size="28" text-anchor="middle">🖼</text>
      <!-- Pending badge -->
      <rect x="160" y="12" width="44" height="18" rx="9" fill="rgba(234,179,8,0.15)"/>
      <text x="182" y="25" fill="#eab308" font-size="8" font-weight="600" text-anchor="middle">待审核</text>
      <text x="12" y="160" fill="rgba(255,255,255,0.9)" font-size="11" font-weight="600">unknown_format.xyz</text>
      <text x="12" y="176" fill="rgba(255,255,255,0.55)" font-size="10">1.2 MB · 格式待确认</text>
    </g>

    <!-- Drop zone (empty slot) -->
    <g transform="translate(464, 212)">
      <rect x="0" y="0" width="220" height="200" rx="12" fill="transparent" stroke="rgba(255,255,255,0.08)" stroke-width="1.5" stroke-dasharray="8,8"/>
      <text x="110" y="96" fill="rgba(255,255,255,0.15)" font-size="28" text-anchor="middle">+</text>
      <text x="110" y="116" fill="rgba(255,255,255,0.25)" font-size="11" text-anchor="middle">拖拽上传</text>
    </g>
  </g>

  <!-- ═══════════ RIGHT: Preview Panel ═══════════ -->
  <g transform="translate(1112, 132)">
    <rect x="0" y="0" width="300" height="780" rx="14" fill="url(#glass)" stroke="rgba(255,255,255,0.08)" stroke-width="1"/>

    <!-- Preview header -->
    <text x="20" y="28" fill="rgba(255,255,255,0.8)" font-size="14" font-weight="600">预览</text>
    <text x="260" y="28" fill="rgba(255,255,255,0.3)" font-size="14" text-anchor="end">✕</text>

    <!-- Preview area -->
    <rect x="12" y="44" width="276" height="180" rx="10" fill="rgba(168,85,247,0.1)"/>
    <text x="150" y="140" fill="rgba(255,255,255,0.2)" font-size="32" text-anchor="middle">▶</text>

    <!-- File info -->
    <text x="20" y="252" fill="rgba(255,255,255,0.9)" font-size="13" font-weight="600">原神4.7_实机录制_01.mp4</text>

    <g transform="translate(20, 268)">
      <text x="0" y="12" fill="rgba(255,255,255,0.4)" font-size="10">类型</text>
      <text x="100" y="12" fill="rgba(255,255,255,0.7)" font-size="10">MP4 视频</text>

      <text x="0" y="32" fill="rgba(255,255,255,0.4)" font-size="10">大小</text>
      <text x="100" y="32" fill="rgba(255,255,255,0.7)" font-size="10">2.4 GB</text>

      <text x="0" y="52" fill="rgba(255,255,255,0.4)" font-size="10">分辨率</text>
      <text x="100" y="52" fill="rgba(255,255,255,0.7)" font-size="10">1920 × 1080</text>

      <text x="0" y="72" fill="rgba(255,255,255,0.4)" font-size="10">时长</text>
      <text x="100" y="72" fill="rgba(255,255,255,0.7)" font-size="10">18:42</text>

      <text x="0" y="92" fill="rgba(255,255,255,0.4)" font-size="10">上传时间</text>
      <text x="100" y="92" fill="rgba(255,255,255,0.7)" font-size="10">2026-04-28 14:30</text>

      <text x="0" y="112" fill="rgba(255,255,255,0.4)" font-size="10">状态</text>
      <rect x="100" y="102" width="40" height="16" rx="8" fill="rgba(34,197,94,0.15)"/>
      <text x="120" y="114" fill="#22c55e" font-size="9" text-anchor="middle" font-weight="500">正常</text>
    </g>

    <!-- Tags -->
    <text x="20" y="408" fill="rgba(255,255,255,0.4)" font-size="10">标签</text>
    <g transform="translate(20, 416)">
      <rect x="0" y="0" width="52" height="24" rx="12" fill="rgba(168,85,247,0.15)"/>
      <text x="26" y="16" fill="#a855f7" font-size="10" font-weight="500" text-anchor="middle">原神</text>
      <rect x="60" y="0" width="52" height="24" rx="12" fill="rgba(34,197,94,0.15)"/>
      <text x="86" y="16" fill="#22c55e" font-size="10" font-weight="500" text-anchor="middle">高光</text>
      <rect x="120" y="0" width="52" height="24" rx="12" fill="rgba(255,255,255,0.06)"/>
      <text x="146" y="16" fill="rgba(255,255,255,0.4)" font-size="10" text-anchor="middle">+ 添加</text>
    </g>

    <!-- Actions -->
    <g transform="translate(20, 460)">
      <rect x="0" y="0" width="260" height="36" rx="10" fill="rgba(255,255,255,0.06)"/>
      <text x="130" y="23" fill="rgba(255,255,255,0.6)" font-size="11" font-weight="500" text-anchor="middle">下载</text>

      <rect x="0" y="44" width="260" height="36" rx="10" fill="rgba(59,130,246,0.12)"/>
      <text x="130" y="67" fill="#3b82f6" font-size="11" font-weight="500" text-anchor="middle">发送到剪辑</text>

      <rect x="0" y="88" width="260" height="36" rx="10" fill="rgba(239,68,68,0.08)"/>
      <text x="130" y="111" fill="rgba(239,68,68,0.6)" font-size="11" font-weight="500" text-anchor="middle">删除</text>
    </g>

    <!-- Linked projects -->
    <text x="20" y="612" fill="rgba(255,255,255,0.4)" font-size="10">关联项目</text>
    <g transform="translate(20, 620)">
      <rect x="0" y="0" width="260" height="32" rx="8" fill="rgba(255,255,255,0.03)"/>
      <text x="12" y="21" fill="rgba(255,255,255,0.6)" font-size="11">🎬 原神 4.7 新角色深度测评</text>
    </g>
    <g transform="translate(20, 658)">
      <rect x="0" y="0" width="260" height="32" rx="8" fill="rgba(255,255,255,0.03)"/>
      <text x="12" y="21" fill="rgba(255,255,255,0.6)" font-size="11">🎬 原神 4.7 版本全攻略</text>
    </g>
  </g>

  <!-- Bottom batch bar -->
  <g transform="translate(432, 580)">
    <rect x="0" y="0" width="660" height="48" rx="12" fill="rgba(13,14,20,0.95)" stroke="rgba(255,255,255,0.12)" stroke-width="1"/>
    <text x="16" y="30" fill="rgba(255,255,255,0.55)" font-size="12">已选择 1 项</text>
    <rect x="120" y="10" width="80" height="28" rx="14" fill="rgba(59,130,246,0.12)"/>
    <text x="160" y="29" fill="#3b82f6" font-size="11" font-weight="500" text-anchor="middle">批量打标</text>
    <rect x="212" y="10" width="80" height="28" rx="14" fill="rgba(255,255,255,0.06)"/>
    <text x="252" y="29" fill="rgba(255,255,255,0.55)" font-size="11" text-anchor="middle">移动到</text>
    <rect x="304" y="10" width="80" height="28" rx="14" fill="rgba(239,68,68,0.08)"/>
    <text x="344" y="29" fill="rgba(239,68,68,0.6)" font-size="11" text-anchor="middle">批量删除</text>
    <rect x="396" y="10" width="80" height="28" rx="14" fill="rgba(255,255,255,0.06)"/>
    <text x="436" y="29" fill="rgba(255,255,255,0.55)" font-size="11" text-anchor="middle">导出</text>
  </g>

  <!-- Pagination -->
  <text x="762" y="660" fill="rgba(255,255,255,0.4)" font-size="11" text-anchor="middle">1 2 3 ... 9 10 →</text>

  <!-- Label -->
  <text x="720" y="990" fill="rgba(255,255,255,0.08)" font-size="11" text-anchor="middle">GameForge · Asset Library · Design Mockup v1 by @Designer</text>
</svg>