<svg xmlns="http://www.w3.org/2000/svg" viewBox="0 0 1440 1000" font-family="'Geist', system-ui, sans-serif">
  <defs>
    <linearGradient id="accent-grad" x1="0%" y1="0%" x2="100%" y2="100%">
      <stop offset="0%" stop-color="#a855f7"/>
      <stop offset="50%" stop-color="#3b82f6"/>
      <stop offset="100%" stop-color="#06b6d4"/>
    </linearGradient>
    <linearGradient id="glass" x1="0%" y1="0%" x2="100%" y2="100%">
      <stop offset="0%" stop-color="rgba(255,255,255,0.06)"/>
      <stop offset="100%" stop-color="rgba(255,255,255,0.02)"/>
    </linearGradient>
  </defs>

  <rect width="1440" height="1000" fill="#0a0b0f"/>

  <!-- Sidebar -->
  <rect x="0" y="0" width="240" height="1000" fill="#0d0e14"/>
  <rect x="240" y="0" width="1" height="1000" fill="rgba(255,255,255,0.06)"/>
  <text x="28" y="42" fill="url(#accent-grad)" font-size="18" font-weight="700">🎮 GameForge</text>
  <g fill="rgba(255,255,255,0.5)" font-size="13" font-weight="500">
    <rect x="12" y="88" width="216" height="40" rx="10" fill="transparent"/>
    <text x="48" y="113">📊 项目主页</text>
    <rect x="12" y="136" width="216" height="40" rx="10" fill="transparent"/>
    <text x="48" y="161">📁 素材库</text>
    <rect x="12" y="184" width="216" height="40" rx="10" fill="transparent"/>
    <text x="48" y="209">✂️ 智能剪辑</text>
    <!-- Active -->
    <rect x="12" y="232" width="216" height="40" rx="10" fill="rgba(59,130,246,0.12)" stroke="rgba(59,130,246,0.3)" stroke-width="1"/>
    <text x="48" y="257" fill="#3b82f6" font-weight="600">🎨 封面工坊</text>
    <rect x="12" y="280" width="216" height="40" rx="10" fill="transparent"/>
    <text x="48" y="305">🚀 发布中心</text>
  </g>

  <!-- Top Bar -->
  <rect x="240" y="0" width="1200" height="48" fill="rgba(13,14,20,0.9)"/>
  <rect x="240" y="48" width="1200" height="1" fill="rgba(255,255,255,0.06)"/>
  <text x="260" y="32" fill="rgba(255,255,255,0.9)" font-size="15" font-weight="600">原神4.7_新角色测评_封面</text>
  <text x="510" y="32" fill="rgba(255,255,255,0.4)" font-size="10">已保存 · 1 分钟前</text>

  <!-- Aspect ratio toggle -->
  <g transform="translate(700, 10)">
    <rect x="0" y="0" width="42" height="28" rx="6" fill="rgba(59,130,246,0.12)"/>
    <text x="21" y="19" fill="#3b82f6" font-size="9" font-weight="600" text-anchor="middle">16:9</text>
    <rect x="48" y="0" width="42" height="28" rx="6" fill="rgba(255,255,255,0.06)"/>
    <text x="69" y="19" fill="rgba(255,255,255,0.55)" font-size="9" text-anchor="middle">9:16</text>
    <rect x="96" y="0" width="42" height="28" rx="6" fill="rgba(255,255,255,0.06)"/>
    <text x="117" y="19" fill="rgba(255,255,255,0.55)" font-size="9" text-anchor="middle">1:1</text>
  </g>

  <!-- Top right actions -->
  <text x="1060" y="32" fill="rgba(255,255,255,0.55)" font-size="11">↩ 撤销</text>
  <text x="1110" y="32" fill="rgba(255,255,255,0.55)" font-size="11">↪ 重做</text>
  <rect x="1170" y="8" width="100" height="32" rx="16" fill="url(#accent-grad)" opacity="0.9"/>
  <text x="1220" y="29" fill="#fff" font-size="11" font-weight="600" text-anchor="middle">导出封面</text>
  <text x="1300" y="32" fill="rgba(255,255,255,0.3)" font-size="14">⚙</text>

  <!-- ═══════════ LEFT PANEL: Template Library (A1) ═══════════ -->
  <g transform="translate(240, 48)">
    <rect x="0" y="0" width="260" height="560" fill="#0d0e14"/>
    <rect x="260" y="0" width="1" height="560" fill="rgba(255,255,255,0.06)"/>

    <!-- Search -->
    <g transform="translate(12, 12)">
      <rect x="0" y="0" width="236" height="32" rx="8" fill="rgba(255,255,255,0.04)" stroke="rgba(255,255,255,0.08)" stroke-width="1"/>
      <text x="12" y="21" fill="rgba(255,255,255,0.35)" font-size="10">🔍 搜索模板...</text>
    </g>

    <!-- Category tabs -->
    <g transform="translate(12, 52)">
      <rect x="0" y="0" width="56" height="24" rx="12" fill="rgba(59,130,246,0.12)"/>
      <text x="28" y="16" fill="#3b82f6" font-size="9" font-weight="600" text-anchor="middle">全部</text>
      <rect x="62" y="0" width="56" height="24" rx="12" fill="rgba(255,255,255,0.06)"/>
      <text x="90" y="16" fill="rgba(255,255,255,0.55)" font-size="9" text-anchor="middle">游戏</text>
      <rect x="124" y="0" width="56" height="24" rx="12" fill="rgba(255,255,255,0.06)"/>
      <text x="152" y="16" fill="rgba(255,255,255,0.55)" font-size="9" text-anchor="middle">角色</text>
      <rect x="0" y="30" width="56" height="24" rx="12" fill="rgba(255,255,255,0.06)"/>
      <text x="28" y="46" fill="rgba(255,255,255,0.55)" font-size="9" text-anchor="middle">攻略</text>
      <rect x="62" y="30" width="56" height="24" rx="12" fill="rgba(255,255,255,0.06)"/>
      <text x="90" y="46" fill="rgba(255,255,255,0.55)" font-size="9" text-anchor="middle">高光</text>
    </g>

    <!-- Template grid (2 columns) -->
    <g transform="translate(12, 118)">
      <!-- Template 1 (selected) -->
      <rect x="0" y="0" width="112" height="80" rx="8" fill="rgba(168,85,247,0.1)" stroke="rgba(59,130,246,0.4)" stroke-width="1.5"/>
      <text x="56" y="36" fill="rgba(255,255,255,0.15)" font-size="18" text-anchor="middle">🎮</text>
      <text x="56" y="56" fill="rgba(255,255,255,0.6)" font-size="8" text-anchor="middle">游戏高燃</text>
      <rect x="80" y="4" width="24" height="14" rx="7" fill="rgba(59,130,246,0.2)"/>
      <text x="92" y="14" fill="#3b82f6" font-size="7" text-anchor="middle" font-weight="500">16:9</text>

      <!-- Template 2 -->
      <rect x="120" y="0" width="112" height="80" rx="8" fill="rgba(255,255,255,0.03)" stroke="rgba(255,255,255,0.08)" stroke-width="1"/>
      <text x="176" y="36" fill="rgba(255,255,255,0.15)" font-size="18" text-anchor="middle">⚔️</text>
      <text x="176" y="56" fill="rgba(255,255,255,0.6)" font-size="8" text-anchor="middle">Boss 战</text>

      <!-- Template 3 -->
      <rect x="0" y="88" width="112" height="80" rx="8" fill="rgba(255,255,255,0.03)" stroke="rgba(255,255,255,0.08)" stroke-width="1"/>
      <text x="56" y="124" fill="rgba(255,255,255,0.15)" font-size="18" text-anchor="middle">🎭</text>
      <text x="56" y="144" fill="rgba(255,255,255,0.6)" font-size="8" text-anchor="middle">角色展示</text>

      <!-- Template 4 -->
      <rect x="120" y="88" width="112" height="80" rx="8" fill="rgba(255,255,255,0.03)" stroke="rgba(255,255,255,0.08)" stroke-width="1"/>
      <text x="176" y="124" fill="rgba(255,255,255,0.15)" font-size="18" text-anchor="middle">📋</text>
      <text x="176" y="144" fill="rgba(255,255,255,0.6)" font-size="8" text-anchor="middle">攻略教程</text>

      <!-- Template 5 -->
      <rect x="0" y="176" width="112" height="80" rx="8" fill="rgba(255,255,255,0.03)" stroke="rgba(255,255,255,0.08)" stroke-width="1"/>
      <text x="56" y="212" fill="rgba(255,255,255,0.15)" font-size="18" text-anchor="middle">🎬</text>
      <text x="56" y="232" fill="rgba(255,255,255,0.6)" font-size="8" text-anchor="middle">实况录制</text>

      <!-- Template 6 -->
      <rect x="120" y="176" width="112" height="80" rx="8" fill="rgba(255,255,255,0.03)" stroke="rgba(255,255,255,0.08)" stroke-width="1"/>
      <text x="176" y="212" fill="rgba(255,255,255,0.15)" font-size="18" text-anchor="middle">🏆</text>
      <text x="176" y="232" fill="rgba(255,255,255,0.6)" font-size="8" text-anchor="middle">排行榜</text>
    </g>

    <!-- More templates hint -->
    <text x="130" y="540" fill="rgba(255,255,255,0.35)" font-size="10" text-anchor="middle">还有 12 个模板 ↓</text>
  </g>

  <!-- ═══════════ CENTER: Canvas Editor (A2/A3/A5) ═══════════ -->
  <g transform="translate(500, 48)">
    <rect x="0" y="0" width="640" height="700" fill="#0b0c10"/>
    <rect x="0" y="699" width="640" height="1" fill="rgba(255,255,255,0.06)"/>

    <!-- Canvas area (16:9 centered) -->
    <rect x="40" y="30" width="560" height="315" rx="8" fill="rgba(168,85,247,0.08)"/>
    <!-- Cover content mock -->
    <!-- Background image area -->
    <rect x="40" y="30" width="560" height="315" rx="8" fill="rgba(168,85,247,0.06)"/>
    <!-- Character image placeholder -->
    <rect x="280" y="50" width="280" height="280" rx="4" fill="rgba(168,85,247,0.1)"/>
    <text x="420" y="200" fill="rgba(255,255,255,0.12)" font-size="48" text-anchor="middle">🖼</text>

    <!-- Title text (editable, with selection handles) -->
    <rect x="56" y="60" width="240" height="56" rx="4" fill="transparent" stroke="rgba(59,130,246,0.6)" stroke-width="1.5" stroke-dasharray="6,3"/>
    <text x="68" y="86" fill="rgba(255,255,255,0.95)" font-size="24" font-weight="800">原神 4.7</text>
    <text x="68" y="108" fill="rgba(255,255,255,0.85)" font-size="18" font-weight="600">新角色深度测评</text>
    <!-- Selection handles -->
    <circle cx="56" cy="60" r="4" fill="#3b82f6"/>
    <circle cx="296" cy="60" r="4" fill="#3b82f6"/>
    <circle cx="56" cy="116" r="4" fill="#3b82f6"/>
    <circle cx="296" cy="116" r="4" fill="#3b82f6"/>

    <!-- Subtitle text -->
    <text x="68" y="300" fill="rgba(255,255,255,0.6)" font-size="12">🎮 GameForge 独家 · 角色实机演示 + 配队推荐</text>

    <!-- Decorative elements -->
    <rect x="56" y="130" width="60" height="3" rx="1.5" fill="url(#accent-grad)"/>

    <!-- Canvas grid/snap hint -->
    <line x1="320" y1="30" x2="320" y2="345" stroke="rgba(59,130,246,0.1)" stroke-width="0.5" stroke-dasharray="4,4"/>
    <line x1="40" y1="187" x2="600" y2="187" stroke="rgba(59,130,246,0.1)" stroke-width="0.5" stroke-dasharray="4,4"/>

    <!-- Zoom indicator -->
    <text x="600" y="360" fill="rgba(255,255,255,0.35)" font-size="10" text-anchor="end">100%</text>
    <!-- Zoom controls -->
    <rect x="20" y="345" width="24" height="24" rx="6" fill="rgba(255,255,255,0.06)"/>
    <text x="32" y="361" fill="rgba(255,255,255,0.55)" font-size="12" text-anchor="middle">−</text>
    <rect x="50" y="345" width="24" height="24" rx="6" fill="rgba(255,255,255,0.06)"/>
    <text x="62" y="361" fill="rgba(255,255,255,0.55)" font-size="12" text-anchor="middle">+</text>

    <!-- Multi-ratio preview strip (A5) -->
    <text x="320" y="400" fill="rgba(255,255,255,0.55)" font-size="11" font-weight="500" text-anchor="middle">多比例预览</text>
    <g transform="translate(40, 410)">
      <!-- 16:9 preview (active) -->
      <rect x="0" y="0" width="200" height="112" rx="6" fill="rgba(59,130,246,0.08)" stroke="rgba(59,130,246,0.3)" stroke-width="1.5"/>
      <rect x="8" y="8" width="184" height="82" rx="4" fill="rgba(168,85,247,0.06)"/>
      <text x="100" y="42" fill="rgba(255,255,255,0.15)" font-size="14" text-anchor="middle">原神 4.7</text>
      <text x="100" y="58" fill="rgba(255,255,255,0.1)" font-size="10" text-anchor="middle">新角色深度测评</text>
      <text x="100" y="104" fill="#3b82f6" font-size="9" font-weight="600" text-anchor="middle">16:9</text>

      <!-- 9:16 preview -->
      <rect x="220" y="0" width="80" height="112" rx="6" fill="rgba(255,255,255,0.03)" stroke="rgba(255,255,255,0.08)" stroke-width="1"/>
      <rect x="228" y="8" width="64" height="82" rx="4" fill="rgba(168,85,247,0.04)"/>
      <text x="260" y="48" fill="rgba(255,255,255,0.1)" font-size="8" text-anchor="middle">原神</text>
      <text x="260" y="104" fill="rgba(255,255,255,0.55)" font-size="9" text-anchor="middle">9:16</text>

      <!-- 1:1 preview -->
      <rect x="320" y="8" width="96" height="96" rx="6" fill="rgba(255,255,255,0.03)" stroke="rgba(255,255,255,0.08)" stroke-width="1"/>
      <rect x="328" y="16" width="80" height="68" rx="4" fill="rgba(168,85,247,0.04)"/>
      <text x="368" y="52" fill="rgba(255,255,255,0.1)" font-size="8" text-anchor="middle">原神</text>
      <text x="368" y="108" fill="rgba(255,255,255,0.55)" font-size="9" text-anchor="middle">1:1</text>
    </g>

    <!-- Canvas toolbar (bottom) -->
    <g transform="translate(40, 536)">
      <rect x="0" y="0" width="560" height="36" rx="8" fill="rgba(255,255,255,0.03)" stroke="rgba(255,255,255,0.06)" stroke-width="1"/>
      <text x="20" y="24" fill="rgba(255,255,255,0.55)" font-size="10">🖼 添加图片</text>
      <text x="110" y="24" fill="rgba(255,255,255,0.55)" font-size="10">T 添加文字</text>
      <text x="200" y="24" fill="rgba(255,255,255,0.55)" font-size="10">📐 对齐</text>
      <text x="280" y="24" fill="rgba(255,255,255,0.55)" font-size="10">↕ 层级</text>
      <text x="360" y="24" fill="rgba(255,255,255,0.55)" font-size="10">🎨 背景</text>
      <text x="440" y="24" fill="rgba(255,255,255,0.55)" font-size="10">🔒 锁定</text>
    </g>
  </g>

  <!-- ═══════════ RIGHT PANEL: Properties + Layers (A3/A4) ═══════════ -->
  <g transform="translate(1140, 48)">
    <rect x="0" y="0" width="300" height="700" fill="#0d0e14"/>
    <rect x="0" y="0" width="1" height="700" fill="rgba(255,255,255,0.06)"/>

    <!-- Tab switcher -->
    <g transform="translate(12, 12)">
      <rect x="0" y="0" width="88" height="28" rx="8" fill="rgba(59,130,246,0.12)"/>
      <text x="44" y="19" fill="#3b82f6" font-size="10" font-weight="600" text-anchor="middle">文字</text>
      <rect x="96" y="0" width="88" height="28" rx="8" fill="rgba(255,255,255,0.06)"/>
      <text x="140" y="19" fill="rgba(255,255,255,0.55)" font-size="10" text-anchor="middle">图片</text>
      <rect x="192" y="0" width="88" height="28" rx="8" fill="rgba(255,255,255,0.06)"/>
      <text x="236" y="19" fill="rgba(255,255,255,0.55)" font-size="10" text-anchor="middle">图层</text>
    </g>

    <!-- Text properties (A3) -->
    <g transform="translate(16, 56)">
      <text x="0" y="12" fill="rgba(255,255,255,0.55)" font-size="10" font-weight="500">选中元素</text>
      <text x="0" y="30" fill="rgba(255,255,255,0.85)" font-size="12" font-weight="600">标题文字</text>

      <!-- Font -->
      <text x="0" y="56" fill="rgba(255,255,255,0.4)" font-size="10">字体</text>
      <rect x="100" y="44" width="168" height="24" rx="6" fill="rgba(255,255,255,0.04)" stroke="rgba(255,255,255,0.08)" stroke-width="1"/>
      <text x="112" y="60" fill="rgba(255,255,255,0.7)" font-size="9">Geist Bold</text>
      <text x="256" y="60" fill="rgba(255,255,255,0.35)" font-size="8">▾</text>

      <!-- Font size -->
      <text x="0" y="82" fill="rgba(255,255,255,0.4)" font-size="10">字号</text>
      <rect x="100" y="70" width="72" height="24" rx="6" fill="rgba(255,255,255,0.04)" stroke="rgba(255,255,255,0.08)" stroke-width="1"/>
      <text x="136" y="86" fill="rgba(255,255,255,0.7)" font-size="9" text-anchor="middle">48px</text>
      <rect x="180" y="70" width="24" height="24" rx="6" fill="rgba(255,255,255,0.06)"/>
      <text x="192" y="86" fill="rgba(255,255,255,0.55)" font-size="10" text-anchor="middle">+</text>
      <rect x="210" y="70" width="24" height="24" rx="6" fill="rgba(255,255,255,0.06)"/>
      <text x="222" y="86" fill="rgba(255,255,255,0.55)" font-size="10" text-anchor="middle">−</text>

      <!-- Color -->
      <text x="0" y="108" fill="rgba(255,255,255,0.4)" font-size="10">颜色</text>
      <g transform="translate(100, 96)">
        <rect x="0" y="0" width="24" height="24" rx="6" fill="#ffffff"/>
        <rect x="30" y="0" width="24" height="24" rx="6" fill="#a855f7"/>
        <rect x="60" y="0" width="24" height="24" rx="6" fill="#3b82f6"/>
        <rect x="90" y="0" width="24" height="24" rx="6" fill="#06b6d4"/>
        <rect x="120" y="0" width="24" height="24" rx="6" fill="#eab308"/>
        <rect x="150" y="0" width="24" height="24" rx="6" fill="rgba(255,255,255,0.06)" stroke="rgba(255,255,255,0.12)" stroke-width="1"/>
        <text x="162" y="16" fill="rgba(255,255,255,0.4)" font-size="10" text-anchor="middle">+</text>
      </g>

      <!-- Stroke -->
      <text x="0" y="142" fill="rgba(255,255,255,0.4)" font-size="10">描边</text>
      <rect x="100" y="130" width="80" height="24" rx="6" fill="rgba(255,255,255,0.04)" stroke="rgba(255,255,255,0.08)" stroke-width="1"/>
      <text x="140" y="146" fill="rgba(255,255,255,0.7)" font-size="9" text-anchor="middle">3px</text>
      <rect x="188" y="130" width="24" height="24" rx="6" fill="#000000" stroke="rgba(255,255,255,0.2)" stroke-width="1"/>

      <!-- Shadow -->
      <text x="0" y="168" fill="rgba(255,255,255,0.4)" font-size="10">阴影</text>
      <rect x="100" y="156" width="168" height="24" rx="6" fill="rgba(255,255,255,0.04)" stroke="rgba(255,255,255,0.08)" stroke-width="1"/>
      <text x="112" y="172" fill="rgba(255,255,255,0.7)" font-size="9">偏移 2px · 模糊 4px</text>

      <!-- Line height -->
      <text x="0" y="194" fill="rgba(255,255,255,0.4)" font-size="10">行高</text>
      <rect x="100" y="182" width="72" height="24" rx="6" fill="rgba(255,255,255,0.04)" stroke="rgba(255,255,255,0.08)" stroke-width="1"/>
      <text x="136" y="198" fill="rgba(255,255,255,0.7)" font-size="9" text-anchor="middle">1.4</text>

      <!-- Text constraint hint -->
      <rect x="0" y="216" width="268" height="32" rx="6" fill="rgba(234,179,8,0.06)" stroke="rgba(234,179,8,0.15)" stroke-width="1"/>
      <text x="12" y="230" fill="#eab308" font-size="8" font-weight="500">⚠ 文字超出画布边界</text>
      <text x="12" y="242" fill="rgba(255,255,255,0.55)" font-size="7">建议缩短文案或减小字号</text>
    </g>

    <!-- Divider -->
    <rect x="0" y="316" width="300" height="1" fill="rgba(255,255,255,0.06)"/>

    <!-- Layers panel (bottom) -->
    <g transform="translate(16, 328)">
      <text x="0" y="12" fill="rgba(255,255,255,0.7)" font-size="11" font-weight="600">图层</text>

      <g transform="translate(0, 24)">
        <!-- Layer: background -->
        <rect x="0" y="0" width="268" height="32" rx="6" fill="rgba(255,255,255,0.03)"/>
        <text x="12" y="14" fill="rgba(255,255,255,0.55)" font-size="9">🖼 背景图</text>
        <text x="240" y="14" fill="rgba(255,255,255,0.3)" font-size="9">🔒</text>
        <text x="256" y="14" fill="rgba(255,255,255,0.4)" font-size="9">👁</text>

        <!-- Layer: character (selected) -->
        <rect x="0" y="38" width="268" height="32" rx="6" fill="rgba(59,130,246,0.08)" stroke="rgba(59,130,246,0.2)" stroke-width="1"/>
        <text x="12" y="52" fill="rgba(255,255,255,0.8)" font-size="9" font-weight="500">🖼 角色立绘</text>
        <text x="240" y="52" fill="rgba(255,255,255,0.4)" font-size="9">👁</text>

        <!-- Layer: title -->
        <rect x="0" y="76" width="268" height="32" rx="6" fill="rgba(255,255,255,0.03)"/>
        <text x="12" y="90" fill="rgba(255,255,255,0.55)" font-size="9">T 标题文字</text>
        <text x="240" y="90" fill="rgba(255,255,255,0.4)" font-size="9">👁</text>

        <!-- Layer: subtitle -->
        <rect x="0" y="114" width="268" height="32" rx="6" fill="rgba(255,255,255,0.03)"/>
        <text x="12" y="128" fill="rgba(255,255,255,0.55)" font-size="9">T 副标题</text>
        <text x="240" y="128" fill="rgba(255,255,255,0.4)" font-size="9">👁</text>

        <!-- Layer: decoration -->
        <rect x="0" y="152" width="268" height="32" rx="6" fill="rgba(255,255,255,0.03)"/>
        <text x="12" y="166" fill="rgba(255,255,255,0.55)" font-size="9">🎨 装饰条</text>
        <text x="240" y="166" fill="rgba(255,255,255,0.4)" font-size="9">👁</text>
      </g>
    </g>

    <!-- Divider -->
    <rect x="0" y="530" width="300" height="1" fill="rgba(255,255,255,0.06)"/>

    <!-- Export queue section (A6) -->
    <g transform="translate(16, 544)">
      <text x="0" y="12" fill="rgba(255,255,255,0.7)" font-size="11" font-weight="600">🎬 导出队列</text>
      <text x="180" y="12" fill="rgba(255,255,255,0.35)" font-size="10">1 / 2</text>

      <!-- Queue item: exporting -->
      <g transform="translate(0, 24)">
        <rect x="0" y="0" width="268" height="52" rx="8" fill="rgba(59,130,246,0.06)" stroke="rgba(59,130,246,0.15)" stroke-width="1"/>
        <text x="12" y="18" fill="rgba(255,255,255,0.8)" font-size="10" font-weight="500">原神4.7_封面_16:9.png</text>
        <text x="12" y="34" fill="rgba(255,255,255,0.55)" font-size="9">导出中... 1080p</text>
        <rect x="12" y="40" width="244" height="3" rx="1.5" fill="rgba(255,255,255,0.06)"/>
        <rect x="12" y="40" width="171" height="3" rx="1.5" fill="#3b82f6"/>
        <text x="256" y="18" fill="#3b82f6" font-size="9" text-anchor="end">70%</text>
      </g>

      <!-- Queue item: queued -->
      <g transform="translate(0, 82)">
        <rect x="0" y="0" width="268" height="40" rx="8" fill="rgba(255,255,255,0.02)" stroke="rgba(255,255,255,0.06)" stroke-width="1"/>
        <text x="12" y="18" fill="rgba(255,255,255,0.6)" font-size="10">原神4.7_封面_9:16.png</text>
        <text x="12" y="32" fill="rgba(255,255,255,0.4)" font-size="9">等待中 · 720p</text>
      </g>
    </g>
  </g>

  <!-- Bottom status bar -->
  <rect x="240" y="984" width="1200" height="16" fill="rgba(13,14,20,0.9)"/>
  <text x="260" y="996" fill="rgba(255,255,255,0.55)" font-size="9">模板: 游戏高燃 · 画布: 1920×1080 · 元素: 5 个</text>
  <text x="720" y="996" fill="rgba(255,255,255,0.55)" font-size="9" text-anchor="middle">自动保存已开启 · 上次保存 1 分钟前</text>
  <text x="1420" y="996" fill="rgba(255,255,255,0.35)" font-size="9" text-anchor="end">Ctrl+S 手动保存 · Ctrl+E 导出</text>

  <!-- Label -->
  <text x="720" y="998" fill="rgba(255,255,255,0.08)" font-size="11" text-anchor="middle">GameForge · Cover Workshop · Design Mockup v1 by @Designer</text>
</svg>